Pontano.ufo
<glyph name="hyphen" format="1">
  <advance width="724"/>
  <unicode hex="002d"/>
  <outline>
    <contour>
      <point x="100" y="400" type="line" smooth="no"/>
      <point x="100" y="511" type="line" smooth="no"/>
      <point x="600" y="511" type="line" smooth="no"/>
      <point x="600" y="400" type="line" smooth="no"/>
    </contour>
  </outline>
</glyph>
<glyph name="slash" format="1">
  <advance width="592"/>
  <unicode hex="002f"/>
  <outline>
    <contour>
      <point x="152" y="-35" type="line" smooth="no"/>
      <point x="43" y="-8" type="line" smooth="no"/>
      <point x="458" y="1534" type="line" smooth="no"/>
      <point x="575" y="1507" type="line" smooth="no"/>
    </contour>
  </outline>
</glyph>
<glyph name="two" format="1">
  <advance width="1137"/>
  <unicode hex="0032"/>
  <outline>
    <contour>
      <point x="185" y="1089" type="line" smooth="no"/>
      <point x="268" y="1274.6"/>
      <point x="397" y="1374"/>
      <point x="574" y="1374" type="curve" smooth="yes"/>
      <point x="733" y="1374"/>
      <point x="880" y="1264.6"/>
      <point x="880" y="1062" type="curve" smooth="yes"/>
      <point x="880" y="627"/>
      <point x="116" y="481"/>
      <point x="100" y="0" type="curve" smooth="no"/>
      <point x="1019" y="0" type="line" smooth="no"/>
      <point x="1019" y="112" type="line" smooth="no"/>
      <point x="280" y="112" type="line" smooth="no"/>
      <point x="441" y="436.077"/>
      <point x="1040" y="614.773"/>
      <point x="1040" y="1060" type="curve" smooth="yes"/>
      <point x="1040" y="1362.3"/>
      <point x="809" y="1491"/>
      <point x="562" y="1491" type="curve" smooth="yes"/>
      <point x="337" y="1491"/>
      <point x="168" y="1387.3"/>
      <point x="56" y="1141" type="curve" smooth="no"/>
    </contour>
  </outline>
</glyph>
<glyph name="nine" format="1">
  <advance width="1197"/>
  <unicode hex="0039"/>
  <outline>
    <contour>
      <point x="912" y="643" type="curve" smooth="no"/>
      <point x="811" y="569"/>
      <point x="701" y="525"/>
      <point x="591" y="525" type="curve" smooth="yes"/>
      <point x="338" y="525"/>
      <point x="119" y="682"/>
      <point x="119" y="987" type="curve" smooth="yes"/>
      <point x="119" y="1237"/>
      <point x="257" y="1492"/>
      <point x="587" y="1492" type="curve" smooth="yes"/>
      <point x="925" y="1492"/>
      <point x="1073" y="1236"/>
      <point x="1073" y="771" type="curve" smooth="yes"/>
      <point x="1073" y="252.089"/>
      <point x="860" y="-25"/>
      <point x="555" y="-25" type="curve" smooth="yes"/>
      <point x="456" y="-25"/>
      <point x="346" y="6"/>
      <point x="227" y="69" type="curve" smooth="no"/>
      <point x="268" y="180" type="line" smooth="no"/>
      <point x="372" y="123"/>
      <point x="464" y="93"/>
      <point x="550" y="93" type="curve" smooth="yes"/>
      <point x="754" y="93"/>
      <point x="890" y="274.985"/>
    </contour>
    <contour>
      <point x="918" y="773" type="curve" smooth="no"/>
      <point x="919" y="797"/>
      <point x="919" y="841"/>
      <point x="919" y="864" type="curve" smooth="yes"/>
      <point x="919" y="1118"/>
      <point x="848" y="1374"/>
      <point x="578" y="1374" type="curve" smooth="yes"/>
      <point x="412" y="1374"/>
      <point x="270" y="1233"/>
      <point x="270" y="991" type="curve" smooth="yes"/>
      <point x="270" y="739"/>
      <point x="415" y="644"/>
      <point x="593" y="644" type="curve" smooth="yes"/>
      <point x="700" y="644"/>
      <point x="821" y="698"/>
    </contour>
  </outline>
</glyph>
<glyph name="semicolon" format="1">
  <advance width="478"/>
  <unicode hex="003b"/>
  <outline>
    <contour>
      <point x="150" y="219" type="line" smooth="no"/>
      <point x="350" y="219" type="line" smooth="no"/>
      <point x="350" y="134" type="line" smooth="no"/>
      <point x="345" y="-24"/>
      <point x="345" y="-163"/>
      <point x="213" y="-254" type="curve" smooth="no"/>
      <point x="164" y="-192" type="line" smooth="no"/>
      <point x="189" y="-172"/>
      <point x="241" y="-105"/>
      <point x="244" y="16" type="curve" smooth="no"/>
      <point x="150" y="29" type="line" smooth="no"/>
    </contour>
    <contour>
      <point x="332" y="1024" type="line" smooth="no"/>
      <point x="332" y="808" type="line" smooth="no"/>
      <point x="159" y="808" type="line" smooth="no"/>
      <point x="159" y="1024" type="line" smooth="no"/>
    </contour>
  </outline>
</glyph>
<glyph name="A" format="1">
  <advance width="1227.66666667"/>
  <unicode hex="0041"/>
  <outline>
    <contour>
      <point x="30.8333333333" y="0" type="line"/>
      <point x="516.833333333" y="1464" type="line"/>
      <point x="708.833333333" y="1464" type="line"/>
      <point x="1196.83333333" y="0" type="line"/>
      <point x="1046.83333333" y="0" type="line"/>
      <point x="912.833333333" y="399" type="line"/>
      <point x="304.833333333" y="399" type="line"/>
      <point x="176.833333333" y="0" type="line"/>
    </contour>
    <contour>
      <point x="607.833333333" y="1362" type="curve"/>
      <point x="579.833333333" y="1274"/>
      <point x="541.833333333" y="1148"/>
      <point x="507.833333333" y="1040" type="curve" smooth="yes"/>
      <point x="338.833333333" y="508" type="line"/>
      <point x="878.833333333" y="508" type="line"/>
      <point x="708.833333333" y="1041" type="line" smooth="yes"/>
      <point x="674.833333333" y="1147"/>
      <point x="634.833333333" y="1274"/>
    </contour>
  </outline>
</glyph>
<glyph name="B" format="1">
  <advance width="1298.57142857"/>
  <unicode hex="0042"/>
  <outline>
    <contour>
      <point x="293" y="1352" type="line"/>
      <point x="293" y="837" type="line"/>
      <point x="521" y="837" type="line" smooth="yes"/>
      <point x="875" y="837"/>
      <point x="1031" y="851"/>
      <point x="1031" y="1100" type="curve" smooth="yes"/>
      <point x="1031" y="1343.18"/>
      <point x="829" y="1352"/>
      <point x="594" y="1352" type="curve" smooth="yes"/>
    </contour>
    <contour>
      <point x="294" y="730" type="line"/>
      <point x="294" y="112" type="line"/>
      <point x="608" y="112" type="line" smooth="yes"/>
      <point x="829" y="112"/>
      <point x="1069" y="125.773"/>
      <point x="1069" y="415" type="curve" smooth="yes"/>
      <point x="1069" y="718"/>
      <point x="849" y="730"/>
      <point x="589" y="730" type="curve" smooth="yes"/>
    </contour>
    <contour>
      <point x="148" y="0" type="line"/>
      <point x="148" y="1464" type="line"/>
      <point x="587" y="1464" type="line" smooth="yes"/>
      <point x="889" y="1464"/>
      <point x="1170" y="1416"/>
      <point x="1170" y="1095" type="curve" smooth="yes"/>
      <point x="1170" y="935"/>
      <point x="1095" y="824"/>
      <point x="899" y="790" type="curve"/>
      <point x="1114" y="747"/>
      <point x="1214" y="604"/>
      <point x="1214" y="413" type="curve" smooth="yes"/>
      <point x="1214" y="85"/>
      <point x="1009" y="0"/>
      <point x="551" y="0" type="curve" smooth="yes"/>
    </contour>
  </outline>
</glyph>
<glyph name="D" format="1">
  <advance width="1400"/>
  <unicode hex="0044"/>
  <outline>
    <contour>
      <point x="653" y="1352" type="curve" smooth="yes"/>
      <point x="294" y="1352" type="line" smooth="no"/>
      <point x="294" y="112" type="line" smooth="no"/>
      <point x="597" y="112" type="line" smooth="yes"/>
      <point x="1008" y="112"/>
      <point x="1144" y="287.562"/>
      <point x="1144" y="737" type="curve" smooth="yes"/>
      <point x="1144" y="1131.28"/>
      <point x="1037" y="1352"/>
    </contour>
    <contour>
      <point x="148" y="1464" type="line" smooth="no"/>
      <point x="652" y="1464" type="line" smooth="yes"/>
      <point x="1064" y="1464"/>
      <point x="1287" y="1280"/>
      <point x="1287" y="738" type="curve" smooth="yes"/>
      <point x="1287" y="203"/>
      <point x="1083" y="0"/>
      <point x="645" y="0" type="curve" smooth="yes"/>
      <point x="148" y="0" type="line" smooth="no"/>
    </contour>
  </outline>
</glyph>
<glyph name="S" format="1">
  <advance width="1216"/>
  <unicode hex="0053"/>
  <outline>
    <contour>
      <point x="618" y="1491" type="curve" smooth="yes"/>
      <point x="850" y="1491"/>
      <point x="1009" y="1420"/>
      <point x="1127" y="1240" type="curve" smooth="no"/>
      <point x="1019" y="1160" type="line" smooth="no"/>
      <point x="939" y="1302.67"/>
      <point x="797" y="1374"/>
      <point x="639" y="1374" type="curve" smooth="yes"/>
      <point x="446" y="1374"/>
      <point x="284" y="1307.72"/>
      <point x="284" y="1137" type="curve" smooth="yes"/>
      <point x="284" y="934.07"/>
      <point x="540" y="896.987"/>
      <point x="713" y="829" type="curve" smooth="yes"/>
      <point x="982" y="726"/>
      <point x="1158" y="646"/>
      <point x="1158" y="393" type="curve" smooth="yes"/>
      <point x="1158" y="126"/>
      <point x="941" y="-25"/>
      <point x="615" y="-25" type="curve" smooth="yes"/>
      <point x="390" y="-25"/>
      <point x="101" y="69"/>
      <point x="45" y="373" type="curve" smooth="no"/>
      <point x="168" y="426" type="line" smooth="no"/>
      <point x="228.789" y="199.56"/>
      <point x="379.75" y="93"/>
      <point x="630" y="93" type="curve" smooth="yes"/>
      <point x="806.181" y="93"/>
      <point x="1005" y="160.84"/>
      <point x="1005" y="388" type="curve" smooth="yes"/>
      <point x="1005" y="584"/>
      <point x="849" y="633"/>
      <point x="565" y="731" type="curve" smooth="yes"/>
      <point x="355" y="805.706"/>
      <point x="131" y="880.413"/>
      <point x="131" y="1125" type="curve" smooth="yes"/>
      <point x="131" y="1378"/>
      <point x="372" y="1491"/>
    </contour>
  </outline>
</glyph>
<glyph name="Y" format="1">
  <advance width="1162"/>
  <unicode hex="0059"/>
  <outline>
    <contour>
      <point x="508" y="549" type="line" smooth="no"/>
      <point x="-4" y="1464" type="line" smooth="no"/>
      <point x="154" y="1464" type="line" smooth="no"/>
      <point x="582" y="682" type="line" smooth="no"/>
      <point x="1009" y="1464" type="line" smooth="no"/>
      <point x="1166" y="1464" type="line" smooth="no"/>
      <point x="654" y="548" type="line" smooth="no"/>
      <point x="654" y="0" type="line" smooth="no"/>
      <point x="508" y="0" type="line" smooth="no"/>
    </contour>
  </outline>
</glyph>
<glyph name="Z" format="1">
  <advance width="1176"/>
  <unicode hex="005a"/>
  <outline>
    <contour>
      <point x="130" y="1352" type="line" smooth="no"/>
      <point x="130" y="1464" type="line" smooth="no"/>
      <point x="1136" y="1464" type="line" smooth="no"/>
      <point x="1136" y="1383" type="line" smooth="no"/>
      <point x="234" y="112" type="line" smooth="no"/>
      <point x="1141" y="112" type="line" smooth="no"/>
      <point x="1134" y="0" type="line" smooth="no"/>
      <point x="47" y="0" type="line" smooth="no"/>
      <point x="47" y="98" type="line" smooth="no"/>
      <point x="943" y="1352" type="line" smooth="no"/>
    </contour>
  </outline>
</glyph>
<glyph name="bracketleft" format="1">
  <advance width="708"/>
  <unicode hex="005b"/>
  <outline>
    <contour>
      <point x="132" y="-52" type="line" smooth="no"/>
      <point x="132" y="1480" type="line" smooth="no"/>
      <point x="590" y="1480" type="line" smooth="no"/>
      <point x="590" y="1374" type="line" smooth="no"/>
      <point x="277" y="1374" type="line" smooth="no"/>
      <point x="277" y="55" type="line" smooth="no"/>
      <point x="590" y="55" type="line" smooth="no"/>
      <point x="590" y="-52" type="line" smooth="no"/>
    </contour>
  </outline>
</glyph>
<glyph name="backslash" format="1">
  <advance width="632"/>
  <unicode hex="005c"/>
  <outline>
    <contour>
      <point x="588" y="-5" type="line" smooth="no"/>
      <point x="443" y="-5" type="line" smooth="no"/>
      <point x="46" y="1464" type="line" smooth="no"/>
      <point x="191" y="1464" type="line" smooth="no"/>
    </contour>
  </outline>
</glyph>
<glyph name="bracketright" format="1">
  <advance width="707"/>
  <unicode hex="005d"/>
  <outline>
    <contour>
      <point x="119" y="1374" type="line" smooth="no"/>
      <point x="119" y="1480" type="line" smooth="no"/>
      <point x="576" y="1480" type="line" smooth="no"/>
      <point x="576" y="-52" type="line" smooth="no"/>
      <point x="119" y="-52" type="line" smooth="no"/>
      <point x="119" y="55" type="line" smooth="no"/>
      <point x="431" y="55" type="line" smooth="no"/>
      <point x="431" y="1374" type="line" smooth="no"/>
    </contour>
  </outline>
</glyph>
<glyph name="underscore" format="1">
  <advance width="870"/>
  <unicode hex="005f"/>
  <outline>
    <contour>
      <point x="99" y="-1" type="line" smooth="no"/>
      <point x="750" y="-1" type="line" smooth="no"/>
      <point x="750" y="-99" type="line" smooth="no"/>
      <point x="99" y="-99" type="line" smooth="no"/>
    </contour>
  </outline>
</glyph>
<glyph name="b" format="1">
  <advance width="1078"/>
  <unicode hex="0062"/>
  <outline>
    <contour>
      <point x="563" y="940" type="curve" smooth="yes"/>
      <point x="733" y="940"/>
      <point x="840" y="757"/>
      <point x="840" y="520" type="curve" smooth="yes"/>
      <point x="840" y="255.801"/>
      <point x="737" y="80"/>
      <point x="565" y="80" type="curve" smooth="yes"/>
      <point x="333" y="80"/>
      <point x="263" y="274.679"/>
      <point x="263" y="522" type="curve" smooth="yes"/>
      <point x="263" y="848"/>
      <point x="433" y="940"/>
    </contour>
    <contour>
      <point x="125" y="0" type="line" smooth="no"/>
      <point x="238" y="0" type="line" smooth="no"/>
      <point x="257" y="161" type="line" smooth="no"/>
      <point x="308" y="38.3405"/>
      <point x="436" y="-25"/>
      <point x="580" y="-25" type="curve" smooth="yes"/>
      <point x="843" y="-25"/>
      <point x="984" y="190.409"/>
      <point x="984" y="502" type="curve" smooth="yes"/>
      <point x="984" y="840"/>
      <point x="837" y="1044"/>
      <point x="589" y="1044" type="curve" smooth="yes"/>
      <point x="449" y="1044"/>
      <point x="327" y="985"/>
      <point x="268" y="865" type="curve" smooth="no"/>
      <point x="268" y="1474" type="line" smooth="no"/>
      <point x="125" y="1474" type="line" smooth="no"/>
    </contour>
  </outline>
</glyph>
<glyph name="d" format="1">
  <advance width="1066"/>
  <unicode hex="0064"/>
  <outline>
    <contour>
      <point x="90" y="500" type="curve" smooth="yes"/>
      <point x="90" y="832"/>
      <point x="228" y="1044"/>
      <point x="482" y="1044" type="curve" smooth="yes"/>
      <point x="627" y="1044"/>
      <point x="735" y="991"/>
      <point x="792" y="863" type="curve" smooth="no"/>
      <point x="792" y="1474" type="line" smooth="no"/>
      <point x="935" y="1474" type="line" smooth="no"/>
      <point x="935" y="0" type="line" smooth="no"/>
      <point x="821" y="0" type="line" smooth="no"/>
      <point x="802" y="172" type="line" smooth="no"/>
      <point x="750" y="50.3827"/>
      <point x="627" y="-25"/>
      <point x="486" y="-25" type="curve" smooth="yes"/>
      <point x="237" y="-25"/>
      <point x="90" y="187.405"/>
    </contour>
    <contour>
      <point x="504" y="80" type="curve" smooth="yes"/>
      <point x="634" y="80"/>
      <point x="798" y="126.11"/>
      <point x="798" y="499" type="curve" smooth="yes"/>
      <point x="798" y="748"/>
      <point x="715" y="940"/>
      <point x="502" y="940" type="curve" smooth="yes"/>
      <point x="330" y="940"/>
      <point x="235" y="762"/>
      <point x="235" y="496" type="curve" smooth="yes"/>
      <point x="235" y="258.429"/>
      <point x="334" y="80"/>
    </contour>
  </outline>
</glyph>
<glyph name="e" format="1">
  <advance width="1027"/>
  <unicode hex="0065"/>
  <outline>
    <contour>
      <point x="532" y="1044" type="curve" smooth="yes"/>
      <point x="817" y="1044"/>
      <point x="939" y="836"/>
      <point x="939" y="564" type="curve" smooth="yes"/>
      <point x="939" y="555"/>
      <point x="938" y="521"/>
      <point x="936" y="504" type="curve"/>
      <point x="237" y="504" type="line"/>
      <point x="237" y="278.468"/>
      <point x="321" y="80"/>
      <point x="537" y="80" type="curve" smooth="yes"/>
      <point x="675" y="80"/>
      <point x="760" y="148.384"/>
      <point x="795" y="258" type="curve" smooth="yes"/>
      <point x="796" y="258"/>
      <point x="905" y="234"/>
      <point x="905" y="234" type="curve"/>
      <point x="858" y="56.314"/>
      <point x="697" y="-23.9961"/>
      <point x="541" y="-25" type="curve"/>
      <point x="224.939" y="-25"/>
      <point x="92" y="228.757"/>
      <point x="92" y="512" type="curve" smooth="yes"/>
      <point x="92" y="823"/>
      <point x="250" y="1044"/>
    </contour>
    <contour>
      <point x="802" y="597" type="line"/>
      <point x="801" y="806.39"/>
      <point x="719" y="940"/>
      <point x="528" y="940" type="curve" smooth="yes"/>
      <point x="344" y="940"/>
      <point x="255" y="783.456"/>
      <point x="240" y="597" type="curve"/>
    </contour>
  </outline>
</glyph>
<glyph name="f" format="1">
  <advance width="623"/>
  <unicode hex="0066"/>
  <outline>
    <contour>
      <point x="460" y="1368" type="curve" smooth="yes"/>
      <point x="360" y="1368"/>
      <point x="359" y="1277.61"/>
      <point x="359" y="1139" type="curve" smooth="yes"/>
      <point x="359" y="1023" type="line" smooth="no"/>
      <point x="559" y="1023" type="line" smooth="no"/>
      <point x="559" y="917" type="line" smooth="no"/>
      <point x="359" y="917" type="line" smooth="no"/>
      <point x="359" y="0" type="line" smooth="no"/>
      <point x="217" y="0" type="line" smooth="no"/>
      <point x="217" y="917" type="line" smooth="no"/>
      <point x="44" y="917" type="line" smooth="no"/>
      <point x="44" y="1023" type="line" smooth="no"/>
      <point x="217" y="1023" type="line" smooth="no"/>
      <point x="217" y="1142" type="line" smooth="yes"/>
      <point x="217" y="1363.67"/>
      <point x="276" y="1474"/>
      <point x="451" y="1474" type="curve" smooth="yes"/>
      <point x="509" y="1474"/>
      <point x="563" y="1457"/>
      <point x="607" y="1433" type="curve" smooth="no"/>
      <point x="573" y="1341" type="line" smooth="no"/>
      <point x="533" y="1356"/>
      <point x="492" y="1368"/>
    </contour>
  </outline>
</glyph>
<glyph name="n" format="1">
  <advance width="1086"/>
  <unicode hex="006e"/>
  <outline>
    <contour>
      <point x="127" y="0" type="line" smooth="no"/>
      <point x="127" y="1023" type="line" smooth="no"/>
      <point x="265" y="1023" type="line" smooth="no"/>
      <point x="265" y="830" type="line" smooth="no"/>
      <point x="317" y="983"/>
      <point x="491" y="1044"/>
      <point x="623" y="1044" type="curve" smooth="yes"/>
      <point x="946" y="1044"/>
      <point x="965" y="790"/>
      <point x="965" y="584" type="curve" smooth="yes"/>
      <point x="965" y="0" type="line" smooth="no"/>
      <point x="823" y="0" type="line" smooth="no"/>
      <point x="823" y="603" type="line" smooth="yes"/>
      <point x="823" y="812.208"/>
      <point x="782.373" y="940"/>
      <point x="605" y="940" type="curve" smooth="yes"/>
      <point x="340.425" y="940"/>
      <point x="269" y="744.568"/>
      <point x="269" y="499" type="curve" smooth="yes"/>
      <point x="269" y="0" type="line" smooth="no"/>
    </contour>
  </outline>
</glyph>
<glyph name="p" format="1">
  <advance width="1061"/>
  <unicode hex="0070"/>
  <outline>
    <contour>
      <point x="825" y="521" type="curve" smooth="yes"/>
      <point x="825" y="242.368"/>
      <point x="724" y="80"/>
      <point x="559" y="80" type="curve" smooth="yes"/>
      <point x="327" y="80"/>
      <point x="270" y="293.486"/>
      <point x="270" y="519" type="curve" smooth="yes"/>
      <point x="270" y="737"/>
      <point x="306" y="940"/>
      <point x="558" y="940" type="curve" smooth="yes"/>
      <point x="726" y="940"/>
      <point x="825" y="767"/>
    </contour>
    <contour>
      <point x="253" y="1023" type="line" smooth="no"/>
      <point x="131" y="1023" type="line" smooth="no"/>
      <point x="131" y="-350" type="line" smooth="no"/>
      <point x="273" y="-350" type="line" smooth="no"/>
      <point x="273" y="154" type="line" smooth="no"/>
      <point x="332" y="39.3596"/>
      <point x="441" y="-25"/>
      <point x="580" y="-25" type="curve" smooth="no"/>
      <point x="846" y="-21.9945"/>
      <point x="969" y="216.443"/>
      <point x="969" y="520" type="curve" smooth="yes"/>
      <point x="969" y="812"/>
      <point x="848" y="1044"/>
      <point x="573" y="1044" type="curve" smooth="yes"/>
      <point x="424" y="1044"/>
      <point x="326" y="976"/>
      <point x="263" y="858" type="curve" smooth="no"/>
    </contour>
  </outline>
</glyph>
<glyph name="q" format="1">
  <advance width="1057"/>
  <unicode hex="0071"/>
  <outline>
    <contour>
      <point x="481" y="1044" type="curve" smooth="yes"/>
      <point x="617" y="1044"/>
      <point x="737" y="997"/>
      <point x="797" y="862" type="curve" smooth="no"/>
      <point x="812" y="1023" type="line" smooth="no"/>
      <point x="929" y="1023" type="line" smooth="no"/>
      <point x="929" y="-350" type="line" smooth="no"/>
      <point x="786" y="-350" type="line" smooth="no"/>
      <point x="786" y="155" type="line" smooth="no"/>
      <point x="729" y="38.352"/>
      <point x="620" y="-25"/>
      <point x="479" y="-25" type="curve" smooth="yes"/>
      <point x="219" y="-25"/>
      <point x="92" y="211.435"/>
      <point x="92" y="518" type="curve" smooth="yes"/>
      <point x="92" y="809"/>
      <point x="219" y="1044"/>
    </contour>
    <contour>
      <point x="502" y="940" type="curve" smooth="yes"/>
      <point x="334" y="940"/>
      <point x="237" y="763"/>
      <point x="237" y="522" type="curve" smooth="yes"/>
      <point x="237" y="243.37"/>
      <point x="336" y="80"/>
      <point x="498" y="80" type="curve" smooth="yes"/>
      <point x="739" y="80"/>
      <point x="788" y="293.507"/>
      <point x="788" y="501" type="curve" smooth="yes"/>
      <point x="788" y="736"/>
      <point x="743" y="940"/>
    </contour>
  </outline>
</glyph>
<glyph name="r" format="1">
  <advance width="589"/>
  <unicode hex="0072"/>
  <outline>
    <contour>
      <point x="265" y="1023" type="line"/>
      <point x="265" y="831" type="line"/>
      <point x="324" y="977.238"/>
      <point x="459" y="1023"/>
      <point x="571" y="1023" type="curve"/>
      <point x="571" y="895" type="line"/>
      <point x="342" y="895"/>
      <point x="269" y="717"/>
      <point x="269" y="532" type="curve" smooth="yes"/>
      <point x="269" y="0" type="line"/>
      <point x="127" y="0" type="line"/>
      <point x="127" y="1023" type="line"/>
    </contour>
  </outline>
</glyph>
<glyph name="dieresis" format="1">
  <advance width="860"/>
  <unicode hex="00a8"/>
  <outline>
    <contour>
      <point x="680" y="1365" type="line" smooth="no"/>
      <point x="680" y="1191" type="line" smooth="no"/>
      <point x="514" y="1191" type="line" smooth="no"/>
      <point x="514" y="1365" type="line" smooth="no"/>
    </contour>
    <contour>
      <point x="135" y="1365" type="line" smooth="no"/>
      <point x="301" y="1365" type="line" smooth="no"/>
      <point x="301" y="1191" type="line" smooth="no"/>
      <point x="135" y="1191" type="line" smooth="no"/>
    </contour>
  </outline>
</glyph>
<glyph name="Eth" format="1">
  <advance width="1391"/>
  <unicode hex="00d0"/>
  <outline>
    <contour>
      <point x="0" y="702" type="line" smooth="no"/>
      <point x="0" y="788" type="line" smooth="no"/>
      <point x="140" y="788" type="line" smooth="no"/>
      <point x="140" y="1464" type="line" smooth="no"/>
      <point x="644" y="1464" type="line" smooth="yes"/>
      <point x="1056" y="1464"/>
      <point x="1270" y="1280"/>
      <point x="1270" y="738" type="curve" smooth="yes"/>
      <point x="1270" y="203"/>
      <point x="1075" y="0"/>
      <point x="637" y="0" type="curve" smooth="yes"/>
      <point x="140" y="0" type="line" smooth="no"/>
      <point x="140" y="702" type="line" smooth="no"/>
    </contour>
    <contour>
      <point x="645" y="1350" type="curve" smooth="yes"/>
      <point x="286" y="1350" type="line" smooth="no"/>
      <point x="286" y="788" type="line" smooth="no"/>
      <point x="550" y="788" type="line" smooth="no"/>
      <point x="550" y="702" type="line" smooth="no"/>
      <point x="286" y="702" type="line" smooth="no"/>
      <point x="286" y="114" type="line" smooth="no"/>
      <point x="589" y="114" type="line" smooth="yes"/>
      <point x="1000" y="114"/>
      <point x="1127" y="289"/>
      <point x="1127" y="737" type="curve" smooth="yes"/>
      <point x="1127" y="1130"/>
      <point x="1029" y="1350"/>
    </contour>
  </outline>
</glyph>
<glyph name="dotlessi" format="1">
  <advance width="411"/>
  <unicode hex="0131"/>
  <outline>
    <contour>
      <point x="140" y="0" type="line" smooth="no"/>
      <point x="140" y="1023" type="line" smooth="no"/>
      <point x="282" y="1023" type="line" smooth="no"/>
      <point x="282" y="0" type="line" smooth="no"/>
    </contour>
  </outline>
</glyph>
<glyph name="Lslash" format="1">
  <advance width="1055"/>
  <unicode hex="0141"/>
  <outline>
    <contour>
      <point x="-1" y="658" type="line" smooth="no"/>
      <point x="-1" y="784" type="line" smooth="no"/>
      <point x="140" y="847" type="line" smooth="no"/>
      <point x="140" y="1464" type="line" smooth="no"/>
      <point x="286" y="1464" type="line" smooth="no"/>
      <point x="286" y="913" type="line" smooth="no"/>
      <point x="532" y="1024" type="line" smooth="no"/>
      <point x="532" y="898" type="line" smooth="no"/>
      <point x="286" y="787" type="line" smooth="no"/>
      <point x="286" y="113" type="line" smooth="no"/>
      <point x="1033" y="113" type="line" smooth="no"/>
      <point x="1033" y="0" type="line" smooth="no"/>
      <point x="140" y="0" type="line" smooth="no"/>
      <point x="140" y="721" type="line" smooth="no"/>
    </contour>
  </outline>
</glyph>
<glyph name="uni01C7" format="1">
  <advance width="1974"/>
  <unicode hex="01c7"/>
  <outline>
    <contour>
      <point x="1041" y="334" type="curve" smooth="no"/>
      <point x="1171" y="369" type="line" smooth="no"/>
      <point x="1209" y="198"/>
      <point x="1275" y="93"/>
      <point x="1437" y="93" type="curve" smooth="no"/>
      <point x="1677" y="95"/>
      <point x="1693" y="306"/>
      <point x="1693" y="541" type="curve" smooth="yes"/>
      <point x="1693" y="1464" type="line" smooth="no"/>
      <point x="1838" y="1464" type="line" smooth="no"/>
      <point x="1838" y="544" type="line" smooth="yes"/>
      <point x="1838" y="166"/>
      <point x="1738" y="-25"/>
      <point x="1425" y="-25" type="curve" smooth="yes"/>
      <point x="1199" y="-25"/>
      <point x="1084" y="117"/>
    </contour>
    <contour>
      <point x="1041" y="0" type="line" smooth="no"/>
      <point x="148" y="0" type="line" smooth="no"/>
      <point x="148" y="1464" type="line" smooth="no"/>
      <point x="294" y="1464" type="line" smooth="no"/>
      <point x="294" y="113" type="line" smooth="no"/>
      <point x="1041" y="113" type="line" smooth="no"/>
    </contour>
  </outline>
</glyph>
<glyph name="dotaccent" format="1">
  <advance width="539"/>
  <unicode hex="02d9"/>
  <outline>
    <contour>
      <point x="275" y="1301" type="curve" smooth="yes"/>
      <point x="194" y="1301"/>
      <point x="153" y="1363"/>
      <point x="153" y="1426" type="curve" smooth="yes"/>
      <point x="153" y="1488"/>
      <point x="194" y="1550"/>
      <point x="275" y="1550" type="curve" smooth="yes"/>
      <point x="356" y="1550"/>
      <point x="397" y="1488"/>
      <point x="397" y="1426" type="curve" smooth="yes"/>
      <point x="397" y="1363"/>
      <point x="356" y="1301"/>
    </contour>
  </outline>
</glyph>
<glyph name="uni0311" format="1">
  <advance width="805"/>
  <unicode hex="0311"/>
  <outline>
    <contour>
      <point x="402" y="1438" type="curve" smooth="yes"/>
      <point x="539" y="1438"/>
      <point x="674" y="1353"/>
      <point x="678" y="1183" type="curve" smooth="no"/>
      <point x="562" y="1183" type="line" smooth="no"/>
      <point x="559" y="1286"/>
      <point x="476" y="1332"/>
      <point x="402" y="1332" type="curve" smooth="yes"/>
      <point x="328" y="1332"/>
      <point x="245" y="1286"/>
      <point x="242" y="1183" type="curve" smooth="no"/>
      <point x="126" y="1183" type="line" smooth="no"/>
      <point x="130" y="1353"/>
      <point x="265" y="1438"/>
    </contour>
  </outline>
</glyph>
<glyph name="emdash" format="1">
  <advance width="2048"/>
  <unicode hex="2014"/>
  <outline>
    <contour>
      <point x="135" y="334" type="line" smooth="no"/>
      <point x="135" y="420" type="line" smooth="no"/>
      <point x="1913" y="420" type="line" smooth="no"/>
      <point x="1913" y="334" type="line" smooth="no"/>
    </contour>
  </outline>
</glyph>
